<svg xmlns="http://www.w3.org/2000/svg" width="17.583" height="19" viewBox="0 0 17.583 19">
  <path id="Union_95" data-name="Union 95" d="M4.039,18a1.981,1.981,0,0,1-1.979-1.951L1.35,5.164H.742a.742.742,0,1,1,0-1.483H4.633V2.027A2.028,2.028,0,0,1,6.658,0H9.925a2.028,2.028,0,0,1,2.027,2.027V3.681h3.891a.742.742,0,0,1,0,1.483h-.61l-.711,10.885A1.979,1.979,0,0,1,12.545,18Zm-.5-2.027c0,.016,0,.032,0,.048a.5.5,0,0,0,.5.5h8.506a.5.5,0,0,0,.5-.5c0-.016,0-.032,0-.048l.707-10.809H2.835ZM10.47,3.681V2.027a.546.546,0,0,0-.545-.545H6.658a.545.545,0,0,0-.544.545V3.681Zm-.332,10.486a.741.741,0,0,1-.711-.77l.2-4.913a.742.742,0,0,1,1.482.06l-.2,4.912a.742.742,0,0,1-.74.712Zm-3.725,0a.742.742,0,0,1-.74-.711l-.2-4.913a.742.742,0,0,1,1.482-.06l.2,4.913a.743.743,0,0,1-.711.771Z" transform="translate(0.5 0.5)" stroke="rgba(0,0,0,0)" stroke-width="1" opacity="0.4"/>
</svg>
