<svg xmlns="http://www.w3.org/2000/svg" width="52.591" height="57" viewBox="0 0 52.591 57">
  <path id="Union_142" data-name="Union 142" d="M12.567,56a6.162,6.162,0,0,1-6.156-6.069L4.2,16.066H2.308a2.307,2.307,0,1,1,0-4.614H14.413V6.306A6.309,6.309,0,0,1,20.714,0H30.878a6.311,6.311,0,0,1,6.305,6.306v5.146H49.288a2.307,2.307,0,0,1,0,4.614h-1.9L45.18,49.931A6.156,6.156,0,0,1,39.029,56Zm-1.55-6.306c0,.05,0,.1,0,.15a1.55,1.55,0,0,0,1.548,1.546H39.029a1.545,1.545,0,0,0,1.542-1.546c0-.05,0-.1,0-.15l2.2-33.628H8.821ZM32.575,11.452V6.306a1.7,1.7,0,0,0-1.7-1.7H20.714a1.7,1.7,0,0,0-1.691,1.7v5.146ZM31.542,44.074a2.3,2.3,0,0,1-2.211-2.394L29.947,26.4a2.307,2.307,0,0,1,4.61.187l-.615,15.28a2.308,2.308,0,0,1-2.3,2.216A.79.79,0,0,1,31.542,44.074Zm-11.588,0a2.308,2.308,0,0,1-2.3-2.211l-.615-15.284a2.307,2.307,0,0,1,4.61-.187l.615,15.284a2.311,2.311,0,0,1-2.211,2.4Z" transform="translate(0.5 0.5)" fill="#e74032" stroke="rgba(0,0,0,0)" stroke-width="1"/>
</svg>
