<svg xmlns="http://www.w3.org/2000/svg" width="44" height="44" viewBox="0 0 44 44">
  <g id="Group_3564" data-name="Group 3564" transform="translate(-1728 -311)">
    <path id="Union_94" data-name="Union 94" d="M.313,17.568a1.265,1.265,0,0,1-.3-1l.452-3.45A1.436,1.436,0,0,1,.868,12.3l9.188-9.188.033-.035.034-.033L12.761.4a1.387,1.387,0,0,1,1.957,0L17.6,3.281a1.387,1.387,0,0,1,0,1.957L5.7,17.131a1.437,1.437,0,0,1-.825.407l-3.45.451A1.282,1.282,0,0,1,1.261,18,1.262,1.262,0,0,1,.313,17.568Zm1.877-4.107-.354,2.7,2.7-.354L13.06,7.287,10.712,4.94ZM14.3,6.044,16.087,4.26,13.74,1.912,11.956,3.7Z" transform="translate(1741.417 324)"/>
    <rect id="Rectangle_8712" data-name="Rectangle 8712" width="44" height="44" transform="translate(1728 311)" fill="none" opacity="0.5"/>
  </g>
</svg>
