<svg xmlns="http://www.w3.org/2000/svg" width="30" height="30" viewBox="0 0 30 30">
  <g id="Roles" transform="translate(-12 -12)">
    <path id="Path_371" data-name="Path 371" d="M0,0H30V30H0Z" transform="translate(12 12)" fill="none"/>
    <path id="assignment_ind_FILL0_wght300_GRAD0_opsz48" d="M8.5,22.4A1.5,1.5,0,0,1,7,20.9V6.286a1.5,1.5,0,0,1,1.5-1.5h5.337a1.884,1.884,0,0,1,.427-1.632,1.957,1.957,0,0,1,3.083,0,1.884,1.884,0,0,1,.427,1.632h5.337a1.5,1.5,0,0,1,1.5,1.5V20.9a1.5,1.5,0,0,1-1.5,1.5ZM15.808,5.042a.753.753,0,0,0,.777-.777.767.767,0,0,0-.22-.544.782.782,0,0,0-1.114,0,.767.767,0,0,0-.22.544.753.753,0,0,0,.777.777ZM8.166,20.405a12.633,12.633,0,0,1,3.459-2.293,10.083,10.083,0,0,1,4.184-.868,10.083,10.083,0,0,1,4.184.868,12.633,12.633,0,0,1,3.459,2.293V6.286a.355.355,0,0,0-.337-.337H8.5a.355.355,0,0,0-.337.337Zm7.668-5.363A3.317,3.317,0,0,0,19.176,11.7a3.317,3.317,0,0,0-3.342-3.342,3.183,3.183,0,0,0-2.358.972,3.248,3.248,0,0,0-.959,2.37,3.248,3.248,0,0,0,.959,2.37,3.183,3.183,0,0,0,2.358.972ZM9.2,21.234H22.415v-.207a10.441,10.441,0,0,0-3.122-1.956,9.393,9.393,0,0,0-3.484-.661,9.592,9.592,0,0,0-3.472.648A10.181,10.181,0,0,0,9.2,21Zm6.658-7.383a2.121,2.121,0,0,1-1.541-.622,2.158,2.158,0,0,1,0-3.057,2.174,2.174,0,0,1,3.057.013,2.142,2.142,0,0,1,0,3.044A2.09,2.09,0,0,1,15.86,13.851ZM15.808,13.177Z" transform="translate(11 14.6)"/>
  </g>
</svg>
