<svg xmlns="http://www.w3.org/2000/svg" width="26.999" height="27" viewBox="0 0 26.999 27">
  <path id="Setting" d="M11.106,26a.843.843,0,0,1-.833-.706l-.505-3.032a10.044,10.044,0,0,1-1.056-.436L6.191,23.591A.843.843,0,0,1,5.109,23.5L2.468,20.852a.844.844,0,0,1-.09-1.087l1.78-2.49a9.646,9.646,0,0,1-.443-1.065L.7,15.675a.844.844,0,0,1-.7-.831V11.108a.846.846,0,0,1,.706-.834l3.018-.5a9.738,9.738,0,0,1,.442-1.064L2.406,6.192a.844.844,0,0,1,.1-1.081L5.144,2.468a.842.842,0,0,1,1.087-.09l2.5,1.786a9.558,9.558,0,0,1,1.045-.428L10.27.709A.845.845,0,0,1,11.1,0h3.739a.846.846,0,0,1,.832.7l.534,3.049a9.835,9.835,0,0,1,1.048.435l2.506-1.8a.842.842,0,0,1,1.09.088L23.5,5.113a.844.844,0,0,1,.094,1.081L21.8,8.741a9.867,9.867,0,0,1,.428,1.032l3.059.5a.845.845,0,0,1,.709.833v3.739a.844.844,0,0,1-.7.831l-3.064.538a9.492,9.492,0,0,1-.426,1.033l1.811,2.514a.845.845,0,0,1-.088,1.09L20.889,23.5a.843.843,0,0,1-1.082.094L17.269,21.81a9.742,9.742,0,0,1-1.055.441L15.673,25.3a.844.844,0,0,1-.831.7Zm-2.05-5.9a8.04,8.04,0,0,0,1.692.7.845.845,0,0,1,.6.673l.472,2.837h2.314l.506-2.856a.845.845,0,0,1,.6-.663,8.033,8.033,0,0,0,1.684-.705.845.845,0,0,1,.9.045L20.2,21.8l1.635-1.636-1.694-2.352a.843.843,0,0,1-.054-.9,8.036,8.036,0,0,0,.691-1.674.845.845,0,0,1,.666-.6l2.87-.5V11.823l-2.863-.467a.843.843,0,0,1-.675-.6,8.166,8.166,0,0,0-.693-1.674.843.843,0,0,1,.048-.893L21.8,5.8,20.165,4.171,17.82,5.855a.841.841,0,0,1-.9.053,8.091,8.091,0,0,0-1.685-.7.844.844,0,0,1-.6-.666l-.5-2.854H11.821L11.36,4.521a.844.844,0,0,1-.6.676,8.042,8.042,0,0,0-1.687.693.841.841,0,0,1-.9-.052L5.833,4.168,4.2,5.8,5.843,8.158a.847.847,0,0,1,.046.9,8.088,8.088,0,0,0-.707,1.7.844.844,0,0,1-.672.6l-2.822.469v2.314l2.825.5a.844.844,0,0,1,.664.6,8.015,8.015,0,0,0,.706,1.7.844.844,0,0,1-.05.9l-1.665,2.33L5.8,21.8l2.359-1.653a.845.845,0,0,1,.893-.047Zm-.3-7.1A4.248,4.248,0,1,1,13,17.247,4.253,4.253,0,0,1,8.752,13Zm1.688,0A2.559,2.559,0,1,0,13,10.441,2.563,2.563,0,0,0,10.44,13Z" transform="translate(0.5 0.5)" fill="#444" stroke="rgba(0,0,0,0)" stroke-width="1"/>
</svg>
