<svg xmlns="http://www.w3.org/2000/svg" width="30" height="30" viewBox="0 0 30 30">
  <g id="Subscription" transform="translate(-12 -355)">
    <rect id="Rectangle_8298" data-name="Rectangle 8298" width="30" height="30" transform="translate(12 355)" fill="none"/>
    <path id="currency_exchange_FILL0_wght400_GRAD0_opsz48" d="M12,22a9.036,9.036,0,0,1-4.909-1.5,13,13,0,0,1-3.727-3.432v3.114H2V14.727H7.455v1.364H4.341a11.213,11.213,0,0,0,3.307,3.148A7.906,7.906,0,0,0,12,20.636a8.368,8.368,0,0,0,3.352-.682,8.659,8.659,0,0,0,4.6-4.6A8.368,8.368,0,0,0,20.636,12H22a9.708,9.708,0,0,1-.784,3.886,10.077,10.077,0,0,1-5.33,5.33A9.708,9.708,0,0,1,12,22Zm-.659-3.477V17.3a4.234,4.234,0,0,1-1.716-.875,4.759,4.759,0,0,1-1.17-1.648l1.159-.386a2.592,2.592,0,0,0,.966,1.364,2.632,2.632,0,0,0,1.58.5,2.482,2.482,0,0,0,1.511-.443,1.385,1.385,0,0,0,.6-1.17,1.63,1.63,0,0,0-.568-1.261,7.893,7.893,0,0,0-2.091-1.148A6.606,6.606,0,0,1,9.568,11a2.351,2.351,0,0,1-.682-1.773,2.362,2.362,0,0,1,.682-1.7,3.026,3.026,0,0,1,1.818-.864V5.5h1.25V6.659a3.087,3.087,0,0,1,1.5.545,3.234,3.234,0,0,1,1.023,1.25l-1.091.523a2.489,2.489,0,0,0-.841-.955A2.154,2.154,0,0,0,12.045,7.7a2.178,2.178,0,0,0-1.4.409,1.35,1.35,0,0,0-.511,1.114,1.364,1.364,0,0,0,.591,1.159,9.754,9.754,0,0,0,1.909.977,6.337,6.337,0,0,1,2.227,1.386,2.7,2.7,0,0,1,.659,1.886,2.626,2.626,0,0,1-.2,1.045,2.334,2.334,0,0,1-.58.818,2.985,2.985,0,0,1-.92.557,4.557,4.557,0,0,1-1.227.284v1.182ZM2,12a9.708,9.708,0,0,1,.784-3.886,10.077,10.077,0,0,1,5.33-5.33A9.708,9.708,0,0,1,12,2a9.036,9.036,0,0,1,4.909,1.5,13,13,0,0,1,3.727,3.432V3.818H22V9.273H16.545V7.909h3.114a11.257,11.257,0,0,0-3.3-3.148A7.885,7.885,0,0,0,12,3.364a8.368,8.368,0,0,0-3.352.682,8.659,8.659,0,0,0-4.6,4.6A8.368,8.368,0,0,0,3.364,12Z" transform="translate(16 358)"/>
  </g>
</svg>
