<svg xmlns="http://www.w3.org/2000/svg" width="24" height="24" viewBox="0 0 24 24">
  <g id="Group_27" data-name="Group 27" transform="translate(-820 -493)">
    <path id="lock_FILL0_wght400_GRAD0_opsz48" d="M9.571,24A1.565,1.565,0,0,1,8,22.429V11.062A1.565,1.565,0,0,1,9.571,9.49H11.4V6.976a4.8,4.8,0,0,1,1.454-3.523A4.8,4.8,0,0,1,16.381,2,4.8,4.8,0,0,1,19.9,3.454a4.8,4.8,0,0,1,1.454,3.523V9.49H23.19a1.565,1.565,0,0,1,1.571,1.571V22.429A1.565,1.565,0,0,1,23.19,24Zm0-1.571H23.19V11.062H9.571Zm6.81-3.667a1.967,1.967,0,0,0,1.427-.576A1.871,1.871,0,0,0,18.4,16.8a2.062,2.062,0,0,0-.589-1.427,1.908,1.908,0,0,0-2.855,0,2.062,2.062,0,0,0-.589,1.427,1.871,1.871,0,0,0,.589,1.388A1.967,1.967,0,0,0,16.381,18.762Zm-3.4-9.271h6.81V6.976a3.4,3.4,0,0,0-3.4-3.4,3.4,3.4,0,0,0-3.4,3.4Zm-3.4,12.938v0Z" transform="translate(816 492)" fill="#27272e"/>
    <rect id="Rectangle_10" data-name="Rectangle 10" width="24" height="24" transform="translate(820 493)" fill="none" opacity="0.5"/>
  </g>
</svg>
