<svg xmlns="http://www.w3.org/2000/svg" xmlns:xlink="http://www.w3.org/1999/xlink" width="511.191" height="520" viewBox="0 0 511.191 520">
  <defs>
    <clipPath id="clip-path">
      <rect id="Rectangle_21" data-name="Rectangle 21" width="511.191" height="520" fill="none"/>
    </clipPath>
    <clipPath id="clip-path-3">
      <rect id="Rectangle_14" data-name="Rectangle 14" width="54.013" height="153.469" transform="translate(23.6 215.607)" fill="none"/>
    </clipPath>
    <clipPath id="clip-path-4">
      <rect id="Rectangle_16" data-name="Rectangle 16" width="42.968" height="13.671" transform="translate(452.828 481.959)" fill="none"/>
    </clipPath>
    <clipPath id="clip-path-5">
      <rect id="Rectangle_17" data-name="Rectangle 17" width="4.494" height="4.385" transform="translate(444.233 481.43)" fill="none"/>
    </clipPath>
    <clipPath id="clip-path-6">
      <rect id="Rectangle_18" data-name="Rectangle 18" width="19.311" height="40.634" transform="translate(317.286 477.538)" fill="none"/>
    </clipPath>
    <clipPath id="clip-path-7">
      <rect id="Rectangle_19" data-name="Rectangle 19" width="4.464" height="4.491" transform="translate(346.568 477.408)" fill="none"/>
    </clipPath>
  </defs>
  <g id="Group_23" data-name="Group 23" transform="translate(-433 -280)">
    <g id="Group_22" data-name="Group 22" transform="translate(433 280)">
      <g id="Group_21" data-name="Group 21" clip-path="url(#clip-path)">
        <g id="Group_20" data-name="Group 20">
          <g id="Group_19" data-name="Group 19" clip-path="url(#clip-path)">
            <path id="Path_7" data-name="Path 7" d="M511.191,482.454c0,.165-114.156.307-254.953.307s-254.976-.142-254.976-.307,114.132-.307,254.976-.307,254.953.13,254.953.307" fill="#263238"/>
            <path id="Path_8" data-name="Path 8" d="M337.21.321H303.378A8.417,8.417,0,0,0,295.126,8.9c0,.013,0,.026,0,.039V15.1a8.419,8.419,0,0,1-8.213,8.617H220.861a8.429,8.429,0,0,1-8.252-8.6V8.891A8.428,8.428,0,0,0,204.386.263H163.029A26.665,26.665,0,0,0,136.388,26.95v.036L136.3,455.624a26.689,26.689,0,0,0,26.618,26.736l174.181.106a26.665,26.665,0,0,0,26.641-26.688v-.036l.083-428.65A26.677,26.677,0,0,0,337.246.321h-.036" fill="#fff"/>
            <path id="Path_9" data-name="Path 9" d="M337.21.321h.919a20.161,20.161,0,0,1,2.7.212A25.131,25.131,0,0,1,350.837,4.07a25.892,25.892,0,0,1,6.071,4.951,26.626,26.626,0,0,1,5.045,7.992,27.648,27.648,0,0,1,1.981,10.833V40.424c0,35.565,0,87.032.07,150.617s0,139.311,0,223.384v40.009c0,1.344-.082,2.723-.141,4.09a29.562,29.562,0,0,1-.766,4.044,27.115,27.115,0,0,1-8.688,13.815,28.948,28.948,0,0,1-7.073,4.338,27.171,27.171,0,0,1-8.146,1.91l-2.11.106H164.939A27.891,27.891,0,0,1,147.61,477.9a27.233,27.233,0,0,1-10.491-14.617,29.6,29.6,0,0,1-1.1-9.018V27.787c0-1.072.082-2.157.117-3.23a24.172,24.172,0,0,1,.472-3.182,27.707,27.707,0,0,1,5.423-11.388A26.993,26.993,0,0,1,163.76.026h39.95a8.545,8.545,0,0,1,8.652,5.482,9.556,9.556,0,0,1,.59,2.617c.07.907,0,1.756,0,2.628v5.164a8.607,8.607,0,0,0,1.85,4.55,8.033,8.033,0,0,0,4.02,2.688,18.535,18.535,0,0,0,4.857.306h64a7.637,7.637,0,0,0,3.289-1.179,8.46,8.46,0,0,0,3.8-5.363A13.615,13.615,0,0,0,295,13.677V10.624a19.493,19.493,0,0,1,.13-3.112,8.579,8.579,0,0,1,.966-2.865,8.454,8.454,0,0,1,4.2-3.819,12.779,12.779,0,0,1,5.281-.589L322.9.321H305.583a12.755,12.755,0,0,0-5.211.6,8.252,8.252,0,0,0-4.09,3.737,8.657,8.657,0,0,0-.932,2.794,20.4,20.4,0,0,0-.117,3.077v3.194a14.222,14.222,0,0,1-.224,3.289,8.75,8.75,0,0,1-3.89,5.529,7.993,7.993,0,0,1-3.407,1.178c-1.179.083-2.429,0-3.666,0H221.274a8.9,8.9,0,0,1-2.5-.318,8.456,8.456,0,0,1-4.208-2.805,9.134,9.134,0,0,1-1.945-4.716c-.1-1.744,0-3.442,0-5.2V8.089a8.764,8.764,0,0,0-.578-2.51A8.135,8.135,0,0,0,203.792.356H163.76a26.584,26.584,0,0,0-21.219,9.82,27.376,27.376,0,0,0-5.328,11.2c-.165,1.037-.353,2.074-.448,3.123a26.193,26.193,0,0,0-.118,3.2v426.47A28.983,28.983,0,0,0,137.72,463a26.57,26.57,0,0,0,10.256,14.287,27.216,27.216,0,0,0,16.975,4.715H337.045l2.063-.106a26.4,26.4,0,0,0,7.969-1.874,27.66,27.66,0,0,0,6.966-4.232,26.345,26.345,0,0,0,8.523-13.38,28.019,28.019,0,0,0,.755-3.949c0-1.344.165-2.676.141-4.031V414.425c0-84.073.071-159.788.106-223.384s.094-115.052.13-150.617V27.846a27.6,27.6,0,0,0-1.9-10.774,26.763,26.763,0,0,0-5-7.945,25.46,25.46,0,0,0-6.024-4.951A25.215,25.215,0,0,0,340.841.639a21.434,21.434,0,0,0-2.7-.247Z" fill="#263238"/>
            <path id="Path_10" data-name="Path 10" d="M164.668,311.031H325.175a6.8,6.8,0,0,1,6.8,6.8v24.354a6.8,6.8,0,0,1-6.8,6.8H164.668a6.8,6.8,0,0,1-6.8-6.8V317.833a6.8,6.8,0,0,1,6.8-6.8" fill="#286fd1"/>
            <path id="Path_11" data-name="Path 11" d="M166.6,176.635v.637h-4.927v-6.967h4.786v.636H162.4v2.476h3.608v.636H162.4v2.582Z" fill="#263238"/>
            <rect id="Rectangle_11" data-name="Rectangle 11" width="2.605" height="0.625" transform="translate(167.603 174.266)" fill="#263238"/>
            <path id="Path_12" data-name="Path 12" d="M180.44,174.242v3.03h-.707v-2.959c0-1.108-.554-1.686-1.5-1.686a1.7,1.7,0,0,0-1.767,1.625,1.662,1.662,0,0,0,.01.273v2.747h-.707v-2.959c0-1.108-.554-1.686-1.509-1.686a1.7,1.7,0,0,0-1.767,1.625,1.663,1.663,0,0,0,.011.273v2.747H171.8v-5.234h.672v.954a2.147,2.147,0,0,1,1.922-1,1.885,1.885,0,0,1,1.862,1.108,2.356,2.356,0,0,1,2.075-1.108,1.98,1.98,0,0,1,2.124,1.825,1.958,1.958,0,0,1-.014.426" fill="#263238"/>
            <path id="Path_13" data-name="Path 13" d="M186.322,174.03v3.242h-.672v-.814a1.967,1.967,0,0,1-1.8.873c-1.179,0-1.91-.625-1.91-1.533s.507-1.485,2.016-1.485h1.662v-.318c0-.9-.507-1.379-1.485-1.379a2.693,2.693,0,0,0-1.745.613l-.318-.531a3.345,3.345,0,0,1,2.133-.707,1.863,1.863,0,0,1,2.113,1.573,1.818,1.818,0,0,1,.009.466m-.707,1.674v-.861h-1.639c-1.013,0-1.343.4-1.343.944s.483.978,1.32.978a1.661,1.661,0,0,0,1.662-1.061" fill="#263238"/>
            <path id="Path_14" data-name="Path 14" d="M188.091,170.376a.519.519,0,1,1,.519.519.507.507,0,0,1-.519-.5v-.024m.153,1.662h.719v5.234h-.719Z" fill="#263238"/>
            <rect id="Rectangle_12" data-name="Rectangle 12" width="0.707" height="7.391" transform="translate(190.932 169.881)" fill="#263238"/>
            <path id="Path_15" data-name="Path 15" d="M164.468,241.364c0,1.485-1.073,2.358-2.853,2.358h-1.874v2.2h-.7v-6.979h2.6c1.745.024,2.818.932,2.818,2.417m-.731,0c0-1.108-.743-1.745-2.134-1.745h-1.862v3.537H161.6c1.391,0,2.158-.7,2.158-1.792Z"/>
            <path id="Path_16" data-name="Path 16" d="M169.819,242.708v3.242h-.672v-.814a1.955,1.955,0,0,1-1.8.861c-1.179,0-1.922-.613-1.922-1.521s.519-1.485,2.028-1.485h1.662v-.318c0-.9-.507-1.379-1.485-1.379a2.693,2.693,0,0,0-1.745.613l-.318-.531a3.345,3.345,0,0,1,2.133-.707,1.863,1.863,0,0,1,2.113,1.573,1.817,1.817,0,0,1,.009.466m-.707,1.674v-.861h-1.639c-1.025,0-1.355.4-1.355.932s.5.99,1.332.99a1.673,1.673,0,0,0,1.662-1.108Z"/>
            <path id="Path_17" data-name="Path 17" d="M171.022,245.348l.318-.554a3.12,3.12,0,0,0,1.863.589c.99,0,1.4-.341,1.4-.86,0-1.368-3.4-.283-3.4-2.358,0-.86.73-1.5,2.063-1.5a3.544,3.544,0,0,1,1.862.495l-.318.566a2.667,2.667,0,0,0-1.544-.448c-.944,0-1.356.366-1.356.861,0,1.414,3.4.353,3.4,2.357,0,.908-.8,1.486-2.169,1.486a3.42,3.42,0,0,1-2.122-.637"/>
            <path id="Path_18" data-name="Path 18" d="M175.89,245.348l.318-.554a3.12,3.12,0,0,0,1.863.589c1,0,1.4-.341,1.4-.86,0-1.368-3.4-.283-3.4-2.358,0-.86.742-1.5,2.074-1.5a3.543,3.543,0,0,1,1.851.495l-.306.566a2.715,2.715,0,0,0-1.545-.448c-.954,0-1.367.366-1.367.861,0,1.414,3.4.353,3.4,2.357,0,.908-.79,1.486-2.157,1.486a3.428,3.428,0,0,1-2.134-.637"/>
            <path id="Path_19" data-name="Path 19" d="M189.081,240.715l-1.98,5.234h-.672l-1.651-4.291-1.65,4.291h-.672l-1.969-5.234h.672l1.651,4.444,1.685-4.444h.6l1.674,4.444,1.662-4.444Z"/>
            <path id="Path_20" data-name="Path 20" d="M189.47,243.332A2.676,2.676,0,1,1,192.158,246h-.012a2.582,2.582,0,0,1-2.676-2.484q0-.09,0-.18m4.621,0a1.957,1.957,0,1,0-1.945,2.039A1.91,1.91,0,0,0,194.1,243.5c0-.057,0-.113,0-.17"/>
            <path id="Path_21" data-name="Path 21" d="M198.889,240.668v.684h-.165a1.695,1.695,0,0,0-1.768,1.933v2.664h-.708v-5.234h.684v1.026a1.945,1.945,0,0,1,1.957-1.073"/>
            <path id="Path_22" data-name="Path 22" d="M204.9,238.558v7.391h-.683v-1.037A2.264,2.264,0,0,1,202.2,246a2.664,2.664,0,0,1,0-5.328,2.357,2.357,0,0,1,1.992,1.037v-3.147Zm-.695,4.774a1.957,1.957,0,1,0-1.945,2.039,1.91,1.91,0,0,0,1.949-1.869c0-.057,0-.113,0-.17"/>
            <path id="Path_23" data-name="Path 23" d="M166.13,184.828H323.713a8.264,8.264,0,0,1,8.264,8.263v21.137a8.264,8.264,0,0,1-8.264,8.263H166.13a8.263,8.263,0,0,1-8.263-8.263V193.091a8.263,8.263,0,0,1,8.263-8.263" fill="#ebebeb"/>
            <path id="Path_24" data-name="Path 24" d="M323.725,222.491h.259a3.662,3.662,0,0,0,.79-.071,7.96,7.96,0,0,0,2.9-.978,8.251,8.251,0,0,0,3.371-3.537,8.044,8.044,0,0,0,.8-3.053V211.2c0-5.175,0-11.529-.094-18.861a8.182,8.182,0,0,0-2.358-4.939,8.049,8.049,0,0,0-5.316-2.358h-13.2l-144.758.1a7.991,7.991,0,0,0-7.615,5.622,18.648,18.648,0,0,0-.354,5.093v17.965a8.385,8.385,0,0,0,.271,2.428,7.928,7.928,0,0,0,2.523,4.032,8.02,8.02,0,0,0,4.326,1.874c1.592.083,3.277,0,4.9,0h28.516l65.058.059,43.864.106h0l-43.864.1-65.058.07H165.234a8.535,8.535,0,0,1-7.368-6.082,9.169,9.169,0,0,1-.282-2.582v-20.57a9.758,9.758,0,0,1,.377-2.664,8.615,8.615,0,0,1,8.251-6.059l144.723.082h13.214a8.416,8.416,0,0,1,8.028,7.58c.071,7.391,0,13.7,0,18.861v3.666a8.3,8.3,0,0,1-.849,3.124,8.179,8.179,0,0,1-3.477,3.607,7.767,7.767,0,0,1-2.959.931,7.027,7.027,0,0,1-1.167.118" fill="#263238"/>
            <path id="Path_25" data-name="Path 25" d="M166.13,252.8H323.713a8.264,8.264,0,0,1,8.264,8.263V282.2a8.264,8.264,0,0,1-8.264,8.263H166.13a8.263,8.263,0,0,1-8.263-8.263V261.061a8.263,8.263,0,0,1,8.263-8.263" fill="#ebebeb"/>
            <path id="Path_26" data-name="Path 26" d="M323.725,290.461h.259a6.735,6.735,0,0,0,.79-.083,8.144,8.144,0,0,0,2.9-.966,8.33,8.33,0,0,0,3.371-3.537,8.044,8.044,0,0,0,.8-3.053v-3.666c0-5.163,0-11.529-.094-18.861a8.113,8.113,0,0,0-2.358-4.927,8,8,0,0,0-5.316-2.3h-13.2l-144.758.036a8,8,0,0,0-7.615,5.634,18.558,18.558,0,0,0-.354,5.081v17.965a8.284,8.284,0,0,0,.271,2.428,7.928,7.928,0,0,0,2.523,4.032,8.02,8.02,0,0,0,4.326,1.874c1.592.094,3.277,0,4.9,0h28.516l65.058.071,43.864.094,11.929.059h0l-11.929.059-43.864.106-65.058.059H170.2c-1.65,0-3.254.059-4.963,0a8.537,8.537,0,0,1-7.368-6.153,9.133,9.133,0,0,1-.282-2.582V261.227a9.838,9.838,0,0,1,.377-2.676,8.615,8.615,0,0,1,8.251-6.059l144.723.082,13.144.012a8.369,8.369,0,0,1,5.564,2.428,8.474,8.474,0,0,1,2.463,5.152c.071,7.391,0,13.7,0,18.861V282.7a8.355,8.355,0,0,1-4.326,6.731,7.915,7.915,0,0,1-2.959.92,7.062,7.062,0,0,1-1.1.106" fill="#263238"/>
            <path id="Path_27" data-name="Path 27" d="M325.175,429.184a7.121,7.121,0,0,0,1.061-.118,6.81,6.81,0,0,0,2.829-1.179,6.691,6.691,0,0,0,2.676-4.114,16.525,16.525,0,0,0,.13-3.206v-3.7c0-5.222,0-11.6-.059-19a6.639,6.639,0,0,0-2.358-4.892,6.444,6.444,0,0,0-2.593-1.32,11.128,11.128,0,0,0-3.03-.212h-13.32l-145.807.082a6.544,6.544,0,0,0-4.574,1.886,6.423,6.423,0,0,0-1.922,4.539V421.3a11.23,11.23,0,0,0,.154,2.463,6.467,6.467,0,0,0,2.617,3.926,6.57,6.57,0,0,0,2.169.99,9.6,9.6,0,0,0,2.416.2h33.7l65.554.07,44.193.1,12.013.058h0l-12.013.059-44.228.248-65.554.071h-33.7a9.516,9.516,0,0,1-2.558-.212,6.872,6.872,0,0,1-2.358-1.073,7.071,7.071,0,0,1-2.864-4.291,11.439,11.439,0,0,1-.165-2.593V397.946a7.072,7.072,0,0,1,7.073-7.073l145.806.094h13.321a11.152,11.152,0,0,1,3.124.236,6.859,6.859,0,0,1,2.735,1.4,7.07,7.07,0,0,1,2.475,5.163v22.715a16.985,16.985,0,0,1-.153,3.242,6.9,6.9,0,0,1-2.794,4.185,6.806,6.806,0,0,1-2.888,1.179,5.277,5.277,0,0,1-1.108.094" fill="#e0e0e0"/>
            <path id="Path_28" data-name="Path 28" d="M283.657,410.2c0,.165-17.623.307-39.36.307s-39.349-.142-39.349-.307,17.611-.306,39.349-.306,39.36.141,39.36.306" fill="#e0e0e0"/>
            <path id="Path_29" data-name="Path 29" d="M241.033,65.509a14.759,14.759,0,1,1,0,20.872,14.758,14.758,0,0,1,0-20.872" fill="#f5f5f5"/>
            <path id="Path_30" data-name="Path 30" d="M261.012,87.14a9.431,9.431,0,0,0-9.537-8.381,9.689,9.689,0,0,0-9.536,8.416,13.072,13.072,0,0,0,9.536,3.537,13.521,13.521,0,0,0,9.537-3.572" fill="#e0e0e0"/>
            <path id="Path_31" data-name="Path 31" d="M251.475,68.2a5.788,5.788,0,1,1-5.788,5.788,5.788,5.788,0,0,1,5.788-5.788" fill="#e0e0e0"/>
            <path id="Path_32" data-name="Path 32" d="M260.941,86.633a11.61,11.61,0,0,0-.9-2.723,9.186,9.186,0,0,0-2.086-2.57,11.48,11.48,0,0,0-3.773-2.11l-.294-.106.271-.141a5.769,5.769,0,0,0,2.3-2.358,5.648,5.648,0,0,0-1.179-6.873,5.589,5.589,0,0,0-7.5,0A5.49,5.49,0,0,0,245.97,73.1a5.575,5.575,0,0,0,.59,3.537,5.472,5.472,0,0,0,1.013,1.344,6.714,6.714,0,0,0,1.273.978l.26.165-.295.082a8.848,8.848,0,0,0-3.772,2.087,9.358,9.358,0,0,0-1.969,2.664,10.251,10.251,0,0,0-.778,1.992,5.54,5.54,0,0,0-.141.543.821.821,0,0,1-.059.188v-.2a1.266,1.266,0,0,1,.106-.554,10.542,10.542,0,0,1,.719-2.04,9.661,9.661,0,0,1,1.969-2.758,8.909,8.909,0,0,1,3.843-2.181v.236a7.411,7.411,0,0,1-1.333-.99,6.428,6.428,0,0,1-1.072-1.415,5.976,5.976,0,0,1-.649-3.7,5.9,5.9,0,0,1,1.91-3.537,6.008,6.008,0,0,1,3.973-1.52,5.893,5.893,0,0,1,5.2,8.794,6.019,6.019,0,0,1-2.44,2.357v-.247a11.688,11.688,0,0,1,3.843,2.2,9.135,9.135,0,0,1,2.075,2.664,7.04,7.04,0,0,1,.459,1.179,4.071,4.071,0,0,1,.213.884l.082.566c-.035.153-.035.212-.047.212" fill="#263238"/>
            <path id="Path_33" data-name="Path 33" d="M266.234,75.941a.668.668,0,0,1,0-.236V74.491a4.528,4.528,0,0,0-.094-.625,10.373,10.373,0,0,0-.319-1.52,14.233,14.233,0,0,0-1.638-3.9,14.642,14.642,0,0,0-3.737-4.15,14.477,14.477,0,0,0-6.283-2.676,14.712,14.712,0,0,0-7.686.637,16.113,16.113,0,0,0-1.91.849,15.029,15.029,0,0,0-1.78,1.179,15.771,15.771,0,0,0-1.662,1.414,15.564,15.564,0,0,0-3.536,5.717,14.592,14.592,0,0,0,2.086,13.25,16.4,16.4,0,0,0,1.439,1.686,16.831,16.831,0,0,0,1.65,1.414,18.326,18.326,0,0,0,1.792,1.179,15.8,15.8,0,0,0,1.909.837,14.626,14.626,0,0,0,17.588-6.236,14.223,14.223,0,0,0,1.639-3.9,10.366,10.366,0,0,0,.318-1.52,4.544,4.544,0,0,1,.094-.613,3.738,3.738,0,0,0,0-.519v-.707a.668.668,0,0,1,0-.236v1.462a1.738,1.738,0,0,1-.082.625,9.724,9.724,0,0,1-.283,1.532,13.739,13.739,0,0,1-1.615,3.973,14.423,14.423,0,0,1-3.749,4.243,14.768,14.768,0,0,1-6.259,2.818,15.036,15.036,0,0,1-7.839-.637,15.616,15.616,0,0,1-1.945-.849,15.94,15.94,0,0,1-1.839-1.178,19.253,19.253,0,0,1-1.686-1.439,17.249,17.249,0,0,1-1.473-1.732,14.89,14.89,0,0,1,0-17.659,17.234,17.234,0,0,1,1.473-1.721,15.014,15.014,0,0,1,1.792-1.509,13.812,13.812,0,0,1,1.827-1.179,15.609,15.609,0,0,1,1.945-.848,14.854,14.854,0,0,1,17.894,6.424,13.672,13.672,0,0,1,1.615,3.973,9.721,9.721,0,0,1,.283,1.532c0,.224.071.436.083.625s0,.365,0,.519v.943Z" fill="#263238"/>
            <path id="Path_34" data-name="Path 34" d="M342.656,137.322c0,.177-41.459.306-92.584.306s-92.6-.129-92.6-.306,41.447-.306,92.6-.306,92.584.141,92.584.306" fill="#e0e0e0"/>
            <path id="Path_35" data-name="Path 35" d="M342.656,370.29c0,.165-41.459.307-92.584.307s-92.6-.142-92.6-.307,41.447-.307,92.6-.307,92.584.142,92.584.307" fill="#e0e0e0"/>
            <path id="Path_36" data-name="Path 36" d="M175.372,271.023,178,272.508l-.684,1.179-2.688-1.579v3.017H173.3v-3.017l-2.676,1.579-.7-1.179,2.664-1.485-2.664-1.462.7-1.179,2.676,1.568v-2.994h1.332v2.994l2.688-1.568.684,1.179Z" fill="#fff"/>
            <path id="Path_37" data-name="Path 37" d="M184.684,271.023l2.652,1.485-.7,1.179-2.676-1.58v3.018h-1.344v-3.018l-2.688,1.58-.683-1.179,2.652-1.485-2.652-1.462.683-1.179,2.688,1.568v-2.994h1.332v2.994l2.676-1.568.7,1.179Z" fill="#fff"/>
            <path id="Path_38" data-name="Path 38" d="M194,271.023l2.641,1.485-.684,1.179-2.723-1.532v3.017H191.9v-3.017l-2.688,1.579-.684-1.179,2.664-1.485-2.664-1.462.684-1.178L191.9,270V267h1.332V270l2.687-1.567.684,1.178Z" fill="#fff"/>
            <path id="Path_39" data-name="Path 39" d="M203.309,271.023l2.641,1.485-.684,1.179-2.688-1.579v3.017h-1.332v-3.017l-2.676,1.579-.695-1.179,2.664-1.485-2.594-1.462.7-1.179,2.676,1.568v-2.994h1.344v2.994l2.687-1.568.684,1.179Z" fill="#fff"/>
            <path id="Path_40" data-name="Path 40" d="M175.9,203.618v2.994H175.2v-2.97a1.472,1.472,0,0,0-1.58-1.674,1.721,1.721,0,0,0-1.833,1.6,1.843,1.843,0,0,0,.006.3v2.746h-.707v-5.187h.672v.967a2.2,2.2,0,0,1,1.992-1.014,2.015,2.015,0,0,1,2.164,1.855,1.979,1.979,0,0,1-.007.385" fill="#fff"/>
            <path id="Path_41" data-name="Path 41" d="M181.784,203.418v3.2H181.1V205.8a1.959,1.959,0,0,1-1.8.873c-1.179,0-1.91-.625-1.91-1.533s.519-1.485,2.016-1.485h1.674v-.318c0-.9-.507-1.38-1.485-1.38a2.655,2.655,0,0,0-1.745.613l-.318-.53a3.294,3.294,0,0,1,2.133-.707,1.861,1.861,0,0,1,2.122,2.086m-.707,1.674v-.837h-1.65c-1.014,0-1.344.4-1.344.931s.483.991,1.32.991A1.687,1.687,0,0,0,181.077,205.092Z" fill="#fff"/>
            <path id="Path_42" data-name="Path 42" d="M192.358,203.618v2.994h-.707v-2.97c0-1.1-.566-1.674-1.509-1.674a1.7,1.7,0,0,0-1.767,1.625,1.782,1.782,0,0,0,.01.273v2.746h-.707v-2.97c0-1.1-.554-1.674-1.509-1.674a1.7,1.7,0,0,0-1.767,1.625,1.663,1.663,0,0,0,.011.273v2.746h-.707v-5.187h.671v.955a2.147,2.147,0,0,1,1.922-1,1.909,1.909,0,0,1,1.874,1.108,2.288,2.288,0,0,1,2.063-1.108,1.981,1.981,0,0,1,2.133,1.815,1.949,1.949,0,0,1-.011.425" fill="#fff"/>
            <path id="Path_43" data-name="Path 43" d="M198.865,204.254H194.48a1.923,1.923,0,0,0,2.02,1.819l.043,0a2.062,2.062,0,0,0,1.6-.684l.4.46a2.77,2.77,0,0,1-4.715-1.816,2.522,2.522,0,0,1,2.377-2.66c.06,0,.12,0,.181,0a2.5,2.5,0,0,1,2.539,2.458c0,.069,0,.138-.005.206Zm-4.385-.53h3.713a1.862,1.862,0,0,0-3.713,0" fill="#fff"/>
            <path id="Path_44" data-name="Path 44" d="M209.109,204.019c0,1.7-.625,2.7-1.65,2.7a1.062,1.062,0,0,1-1.119-1c0-.032,0-.065,0-.1a2.216,2.216,0,0,1-1.992,1.1,2.582,2.582,0,0,1,0-5.152,2.23,2.23,0,0,1,1.968,1.049v-1h.649v3.82c0,.554.282.754.613.754.624,0,1.025-.766,1.025-2.11a3.8,3.8,0,0,0-4.1-3.89,4.008,4.008,0,1,0-.435,8,3.947,3.947,0,0,0,.435,0,4.464,4.464,0,0,0,1.91-.436l.165.483a4.716,4.716,0,0,1-2.075.46,4.515,4.515,0,0,1,0-9.03,4.314,4.314,0,0,1,4.6,4.01c.008.113.011.227.01.34m-2.782.118a1.9,1.9,0,1,0-1.9,1.992,1.862,1.862,0,0,0,1.9-1.822C206.332,204.25,206.331,204.194,206.327,204.137Z" fill="#fff"/>
            <path id="Path_45" data-name="Path 45" d="M219.259,203.618v2.994h-.707v-2.97c0-1.1-.554-1.674-1.509-1.674a1.686,1.686,0,0,0-1.757,1.611,1.718,1.718,0,0,0,.012.287v2.746h-.707v-2.97c0-1.1-.566-1.674-1.521-1.674a1.7,1.7,0,0,0-1.767,1.625,1.663,1.663,0,0,0,.011.273v2.746h-.707v-5.187h.683v.955a2.137,2.137,0,0,1,1.922-1,1.886,1.886,0,0,1,1.862,1.108,2.36,2.36,0,0,1,2.075-1.108,1.98,1.98,0,0,1,2.122,1.828,1.96,1.96,0,0,1-.012.412" fill="#fff"/>
            <path id="Path_46" data-name="Path 46" d="M225.14,203.418v3.2h-.683V205.8a1.959,1.959,0,0,1-1.8.873c-1.179,0-1.91-.625-1.91-1.533s.519-1.485,2.028-1.485h1.663v-.318c0-.9-.508-1.38-1.485-1.38a2.655,2.655,0,0,0-1.746.613l-.318-.53a3.339,3.339,0,0,1,2.133-.707,1.861,1.861,0,0,1,2.122,2.086m-.706,1.674v-.837h-1.651c-1.013,0-1.344.4-1.344.931s.5.991,1.332.991A1.688,1.688,0,0,0,224.434,205.092Z" fill="#fff"/>
            <path id="Path_47" data-name="Path 47" d="M226.909,199.764a.508.508,0,0,1,.518-.5h0a.507.507,0,0,1,.154,1,.5.5,0,0,1-.154,0,.507.507,0,0,1-.519-.494v-.012m.153,1.662h.707v5.187h-.707Z" fill="#fff"/>
            <rect id="Rectangle_13" data-name="Rectangle 13" width="0.707" height="7.344" transform="translate(229.774 199.268)" fill="#fff"/>
            <path id="Path_48" data-name="Path 48" d="M231.966,206.164a.531.531,0,0,1,.519-.542h.011a.543.543,0,0,1,.531.542.555.555,0,0,1-.531.555A.543.543,0,0,1,231.966,206.164Z" fill="#fff"/>
            <path id="Path_49" data-name="Path 49" d="M233.864,204.043a2.581,2.581,0,0,1,2.495-2.665c.068,0,.136,0,.2,0a2.358,2.358,0,0,1,2.052,1.037l-.531.366a1.767,1.767,0,0,0-1.521-.778,2.039,2.039,0,1,0,0,4.078,1.754,1.754,0,0,0,1.521-.766l.531.366a2.36,2.36,0,0,1-2.052,1.037,2.593,2.593,0,0,1-2.7-2.484c0-.064,0-.128,0-.192" fill="#fff"/>
            <path id="Path_50" data-name="Path 50" d="M239.381,204.043a2.664,2.664,0,1,1,2.664,2.676,2.583,2.583,0,0,1-2.665-2.5c0-.06,0-.12,0-.18m4.609,0a1.945,1.945,0,1,0-1.945,2.039,1.91,1.91,0,0,0,1.949-1.869c0-.057,0-.113,0-.17" fill="#fff"/>
            <path id="Path_51" data-name="Path 51" d="M254.811,203.618v2.994H254.1v-2.97c0-1.1-.566-1.674-1.509-1.674a1.7,1.7,0,0,0-1.767,1.625,1.782,1.782,0,0,0,.01.273v2.746h-.707v-2.97c0-1.1-.554-1.674-1.509-1.674a1.7,1.7,0,0,0-1.767,1.625,1.663,1.663,0,0,0,.011.273v2.746h-.707v-5.187h.671v.955a2.147,2.147,0,0,1,1.922-1,1.909,1.909,0,0,1,1.874,1.108,2.288,2.288,0,0,1,2.063-1.108,1.981,1.981,0,0,1,2.133,1.815,1.949,1.949,0,0,1-.011.425" fill="#fff"/>
            <path id="Path_52" data-name="Path 52" d="M164.809,48.4a.531.531,0,0,1-.377-.153l-5.541-4.857a.578.578,0,0,1,0-.884l5.541-4.6a.564.564,0,0,1,.8.053l.015.017a.578.578,0,0,1-.058.815l-.013.01-4.951,4.162,5.022,4.408a.577.577,0,0,1,.069.814l-.01.012a.614.614,0,0,1-.495.2" fill="#263238"/>
            <circle id="Ellipse_3" data-name="Ellipse 3" cx="2.959" cy="2.959" r="2.959" transform="translate(318.762 41.487) rotate(-22.5)" fill="#263238"/>
            <path id="Path_53" data-name="Path 53" d="M334.122,43.088a2.953,2.953,0,1,1,0-.012v.012" fill="#263238"/>
            <path id="Path_54" data-name="Path 54" d="M342.656,43.088a2.959,2.959,0,1,1-2.959-2.959h.012a2.959,2.959,0,0,1,2.947,2.959" fill="#263238"/>
            <path id="Path_55" data-name="Path 55" d="M484.962,150.984H414.387a11.128,11.128,0,0,0-11.128,11.128v17.564A11.128,11.128,0,0,0,414.387,190.8h.731v10.032l11.3-10.032h58.54a11.128,11.128,0,0,0,11.128-11.128V162.112a11.128,11.128,0,0,0-11.128-11.128" fill="#fff"/>
            <path id="Path_56" data-name="Path 56" d="M484.962,150.984h.613a10.217,10.217,0,0,1,1.627.153c.353.071.754.177,1.179.283a12,12,0,0,1,1.367.531A10.944,10.944,0,0,1,492.789,154a11.432,11.432,0,0,1,2.629,3.772,12.82,12.82,0,0,1,.884,5.4v17.211a11.363,11.363,0,0,1-7.073,9.831,11.959,11.959,0,0,1-4.479.837h-58.3l.2-.083-11.293,10.044-.518.448V190.745l.306.307a11.978,11.978,0,0,1-6.33-1.474,11.653,11.653,0,0,1-4.491-4.585,12.527,12.527,0,0,1-1.1-3.018,15.1,15.1,0,0,1-.247-3.147V163.7c0-.978,0-1.956.082-2.958a11.47,11.47,0,0,1,6.578-9.054,12,12,0,0,1,5.47-1.049h33.82l26.393.1h0l-26.393.106H415.094a11.268,11.268,0,0,0-5.234,1,10.858,10.858,0,0,0-6.236,8.6,26.226,26.226,0,0,0-.071,2.9v15.124a14.439,14.439,0,0,0,.236,3.029,12.08,12.08,0,0,0,1.049,2.853,10.987,10.987,0,0,0,4.256,4.338,11.387,11.387,0,0,0,6.024,1.391h.306v10.35l-.519-.224,11.3-10.032.083-.082h53.765c3.148-.094,6.283.389,8.959-.778a10.893,10.893,0,0,0,6.814-9.431c.07-1.273,0-2.569,0-3.807V162.7a12.693,12.693,0,0,0-.814-5.3,11.218,11.218,0,0,0-2.534-3.713,10.741,10.741,0,0,0-2.959-2.052,12.941,12.941,0,0,0-1.332-.542l-1.179-.306a20.451,20.451,0,0,0-2.051.2" fill="#263238"/>
            <path id="Path_57" data-name="Path 57" d="M425.008,170.2l2.263,1.179-1.285,2.122-2.357-1.391.071,2.546h-2.523l.059-2.546-2.358,1.391-1.261-2.122,2.251-1.179-2.251-1.238,1.261-2.133,2.358,1.426-.059-2.582H423.7l-.071,2.582,2.357-1.426,1.285,2.133Z" fill="#e0e0e0"/>
            <path id="Path_58" data-name="Path 58" d="M435.5,170.2l2.263,1.179-1.285,2.122-2.357-1.391.071,2.546h-2.523v-2.546L429.31,173.5l-1.261-2.122L430.3,170.2l-2.251-1.238,1.261-2.133,2.358,1.426v-2.582h2.523l-.071,2.582,2.357-1.426,1.285,2.133Z" fill="#e0e0e0"/>
            <path id="Path_59" data-name="Path 59" d="M445.991,170.2l2.263,1.179-1.285,2.122-2.357-1.391.059,2.546h-2.523l.059-2.546-2.358,1.391-1.261-2.122,2.252-1.179-2.252-1.238,1.261-2.133,2.358,1.426-.059-2.582h2.523l-.059,2.582,2.357-1.426,1.285,2.133Z" fill="#e0e0e0"/>
            <path id="Path_60" data-name="Path 60" d="M456.482,170.2l2.263,1.179L457.46,173.5l-2.357-1.391.059,2.546h-2.523l.059-2.546L450.34,173.5l-1.261-2.122,2.263-1.179-2.263-1.238,1.261-2.133,2.358,1.426-.059-2.582h2.523l-.059,2.582,2.357-1.426,1.285,2.133Z" fill="#e0e0e0"/>
            <path id="Path_61" data-name="Path 61" d="M466.974,170.2l2.263,1.179-1.285,2.122-2.357-1.391.059,2.546h-2.476l.059-2.546L460.88,173.5l-1.262-2.122,2.264-1.179-2.24-1.238,1.261-2.133,2.358,1.426-.059-2.582h2.522l-.058,2.582,2.357-1.426,1.285,2.133Z" fill="#e0e0e0"/>
            <path id="Path_62" data-name="Path 62" d="M477.465,170.2l2.263,1.179-1.226,2.228-2.357-1.391v2.546h-2.523l.059-2.546-2.252,1.391-1.261-2.122,2.263-1.179-2.263-1.238,1.261-2.133,2.358,1.426-.059-2.582h2.417v2.582l2.357-1.426,1.285,2.133Z" fill="#e0e0e0"/>
            <path id="Path_63" data-name="Path 63" d="M23.6,215.607c13.91,7.2,24.566,19.6,32.229,33.254s12.613,28.634,17.505,43.51l4.279,76.7c-16.173-27.513-29.164-59.907-32.665-91.6l10.763-.955c-7.215-1.108-13.274-6.33-17.128-12.531s-5.894-13.356-7.78-20.393l13.131,1.921A48.675,48.675,0,0,1,23.6,215.607" fill="#455a64"/>
            <g id="Group_6" data-name="Group 6" opacity="0.3">
              <g id="Group_5" data-name="Group 5">
                <g id="Group_4" data-name="Group 4" clip-path="url(#clip-path-3)">
                  <path id="Path_64" data-name="Path 64" d="M23.6,215.607c13.91,7.2,24.566,19.6,32.229,33.254s12.613,28.634,17.505,43.51l4.279,76.7c-16.173-27.513-29.164-59.907-32.665-91.6l10.763-.955c-7.215-1.108-13.274-6.33-17.128-12.531s-5.894-13.356-7.78-20.393l13.131,1.921A48.675,48.675,0,0,1,23.6,215.607"/>
                </g>
              </g>
            </g>
            <path id="Path_65" data-name="Path 65" d="M80.065,387.053s35.117-42.025,34.716-82.151H100.635s15.407-10.138,14.146-15.808-1.627-27.113-1.627-27.113l-12.967,3.242s9.725-4.868,10.94-12.566-2.83-43.368-2.83-43.368S92.49,225.91,87.621,242.932,69.939,279.8,73.747,331.684s6.318,55.369,6.318,55.369" fill="#455a64"/>
            <path id="Path_66" data-name="Path 66" d="M62.206,391.025s-38.04-25.344-46.492-57.691l11.4-3.112s-14.594-4.774-14.865-9.6-4.633-22.185-4.633-22.185l11.14-.236S9.867,296.425,7.2,290.5,0,255.014,0,255.014s16.339,9.9,23.977,22.527,22.244,25.792,30.579,68.312,7.65,45.172,7.65,45.172" fill="#455a64"/>
            <path id="Path_67" data-name="Path 67" d="M98.643,245.9a2.5,2.5,0,0,1-.059.448l-.248,1.308c-.235,1.179-.565,2.865-1,5.01s-.979,4.834-1.557,7.934-1.284,6.613-1.968,10.515c-1.45,7.8-2.994,17.116-4.586,27.49s-3.112,21.784-4.526,33.808-2.452,23.505-3.313,33.961-1.438,19.887-1.8,27.808c-.224,3.961-.354,7.545-.484,10.692s-.224,5.894-.283,8.075-.141,3.9-.176,5.1a8.407,8.407,0,0,1-.059,1.332,2.792,2.792,0,0,1,0,.448,2.578,2.578,0,0,1,0-.448v-6.436c0-2.192.082-4.939.188-8.086s.189-6.743.389-10.7c.319-7.933.9-17.364,1.674-27.832s1.9-21.949,3.277-33.985,2.983-23.458,4.562-33.832,3.218-19.674,4.716-27.466c.707-3.914,1.438-7.426,2.062-10.515s1.179-5.741,1.663-7.91.848-3.819,1.108-4.986l.306-1.3a2.652,2.652,0,0,1,.118-.436" fill="#263238"/>
            <path id="Path_68" data-name="Path 68" d="M84.886,412.786s32.134-36.461,42.107-58.493l-7.533-3.218c5.458.9,11.058-1.45,15.325-5.01s7.344-8.251,10.385-12.872l-9.949-1.627a36.917,36.917,0,0,0,21.678-16.8c-11.717,1.933-22.3,8.358-31.038,16.4a155.125,155.125,0,0,0-18.8,21.737,73.833,73.833,0,0,0-7.3,12.013c-5.4,11.163-14.9,34.491-14.877,47.871" fill="#455a64"/>
            <path id="Path_69" data-name="Path 69" d="M15.23,276.233a2.4,2.4,0,0,1,.212.342c.13.271.318.6.542,1.037.5.943,1.179,2.287,2.063,4,1.792,3.466,4.3,8.523,7.309,14.83s6.472,13.851,10.161,22.3,7.556,17.847,11.411,27.773,7.25,19.5,10.244,28.232,5.482,16.657,7.485,23.341,3.537,12.118,4.574,15.89l1.179,4.338.295,1.179a1.71,1.71,0,0,1,.071.389,1.157,1.157,0,0,1-.13-.377c-.094-.272-.212-.649-.354-1.109-.295-1.025-.719-2.475-1.261-4.314-1.085-3.749-2.7-9.159-4.715-15.82S59.683,383.7,56.7,374.97s-6.449-18.248-10.28-28.185-7.721-19.3-11.352-27.773S28,302.98,25.026,296.615s-5.387-11.4-7.073-14.9L16,277.671c-.212-.448-.377-.79-.495-1.061a2.094,2.094,0,0,1-.271-.377" fill="#263238"/>
            <path id="Path_70" data-name="Path 70" d="M82.151,428.417a3.4,3.4,0,0,1,0-.684c0-.518.118-1.179.189-1.957s.212-1.886.4-3.076.366-2.57.661-4.067c.518-3.006,1.308-6.554,2.357-10.456s2.358-8.122,4.008-12.484,3.466-8.416,5.246-12.035,3.536-6.79,5.163-9.431c.766-1.32,1.532-2.464,2.193-3.536a25.77,25.77,0,0,1,1.732-2.57c.554-.7.837-1.179,1.179-1.591a2.886,2.886,0,0,1,.436-.543,3.617,3.617,0,0,1-.33.613l-1.049,1.651c-.471.719-1.025,1.591-1.65,2.628s-1.368,2.193-2.11,3.537c-1.533,2.617-3.254,5.811-5.022,9.43s-3.536,7.663-5.175,12-2.959,8.558-4.043,12.424-1.875,7.4-2.452,10.385c-.318,1.486-.531,2.841-.743,4.032s-.377,2.216-.507,3.065-.224,1.426-.306,1.933a3.121,3.121,0,0,1-.177.731" fill="#263238"/>
            <rect id="Rectangle_15" data-name="Rectangle 15" width="70.328" height="14.346" transform="translate(39.749 419.836)" fill="#286fd1"/>
            <path id="Path_71" data-name="Path 71" d="M103.382,434.182l-7.6,48.26h-42.5l-7.1-48.26Z" fill="#286fd1"/>
            <path id="Path_72" data-name="Path 72" d="M44.064,434.182c0-.165,13.309-.307,29.718-.307s29.718.142,29.718.307-13.309.307-29.718.307-29.718-.13-29.718-.307" fill="#263238"/>
            <path id="Path_73" data-name="Path 73" d="M395.019,428.7s84.532-44.04,102.863-19.745-18.4,43.38-25.5,47.671-78.9,28.68-78.9,28.68L374.543,465.09Z" fill="#263238"/>
            <path id="Path_74" data-name="Path 74" d="M428.356,452.265l33.7,18.142,30.8,6.672a3.937,3.937,0,0,1,3,4.694c-.018.079-.037.156-.059.233a3.869,3.869,0,0,1-2.464,2.606c-7.65,2.664-35.812,12.318-38.2,10.856-2.77-1.7-36.826-16.786-36.826-16.786Z" fill="#286fd1"/>
            <g id="Group_9" data-name="Group 9" opacity="0.6">
              <g id="Group_8" data-name="Group 8">
                <g id="Group_7" data-name="Group 7" clip-path="url(#clip-path-4)">
                  <path id="Path_75" data-name="Path 75" d="M495.8,482.006l-42.969,12.236,1.439.743a5.9,5.9,0,0,0,4.056.483c3.642-.861,13.661-3.536,34.95-10.8a3.916,3.916,0,0,0,2.524-2.711Z" fill="#fff"/>
                </g>
              </g>
            </g>
            <g id="Group_12" data-name="Group 12" opacity="0.6">
              <g id="Group_11" data-name="Group 11">
                <g id="Group_10" data-name="Group 10" clip-path="url(#clip-path-5)">
                  <path id="Path_76" data-name="Path 76" d="M445.39,481.688a2.357,2.357,0,0,1,3.053.825,2.287,2.287,0,0,1-.79,3.042,2.513,2.513,0,0,1-3.23-.9,2.357,2.357,0,0,1,1.179-3.065" fill="#fff"/>
                </g>
              </g>
            </g>
            <path id="Path_77" data-name="Path 77" d="M476.923,482.206c.189-.141-1.179-1.827-1.179-4.338s1.438-4.161,1.25-4.314-.554.224-1.073.966a6.157,6.157,0,0,0-1.014,3.336,6.085,6.085,0,0,0,.92,3.36c.542.754,1.025,1.061,1.1.99" fill="#263238"/>
            <path id="Path_78" data-name="Path 78" d="M482.723,482.1c.235-.083-.319-1.745.07-3.76s1.461-3.384,1.273-3.537-1.686,1.085-2.1,3.395.578,4.043.755,3.9" fill="#263238"/>
            <path id="Path_79" data-name="Path 79" d="M468.765,483.751c.236-.083-.625-2.629-.283-5.823s1.627-5.541,1.4-5.659-1.922,2.146-2.24,5.576.943,6.024,1.12,5.906" fill="#263238"/>
            <path id="Path_80" data-name="Path 80" d="M458.062,479.083c.248,0,.413-2.263,1.58-4.715s2.734-4.138,2.569-4.326-2.121,1.273-3.336,3.972-1.037,5.1-.813,5.069" fill="#263238"/>
            <path id="Path_81" data-name="Path 81" d="M448.03,474.014c.248,0,.083-2.487,1.521-5.01s3.536-3.737,3.43-3.949-.66.071-1.509.625a8.321,8.321,0,0,0-2.664,2.911,8.467,8.467,0,0,0-1.061,3.808c-.012,1.014.177,1.627.283,1.615" fill="#263238"/>
            <path id="Path_82" data-name="Path 82" d="M447.606,468.1a4.535,4.535,0,0,0-1.261-.707,10.052,10.052,0,0,0-3.9-.7,4.494,4.494,0,0,0-2.77.731,1.615,1.615,0,0,0-.495,1.745,2.6,2.6,0,0,0,1.273,1.332,5.54,5.54,0,0,0,6.766-2,6.414,6.414,0,0,0-.13-7.156,2.216,2.216,0,0,0-1.6-.943,1.558,1.558,0,0,0-1.462,1.073,5.475,5.475,0,0,0,0,2.841,11.138,11.138,0,0,0,1.462,3.678,4.8,4.8,0,0,0,.92,1.179,17.679,17.679,0,0,1-1.792-4.916,5.033,5.033,0,0,1,0-2.475.815.815,0,0,1,.79-.59,1.51,1.51,0,0,1,1.025.684,5.717,5.717,0,0,1,0,6.2,4.809,4.809,0,0,1-5.717,1.78,1.892,1.892,0,0,1-.931-.884.86.86,0,0,1,.259-.966,4.028,4.028,0,0,1,2.358-.672,14.823,14.823,0,0,1,5.21.766" fill="#263238"/>
            <path id="Path_83" data-name="Path 83" d="M440.439,456.579s-79.652-48.26-90.415-54.225c-9.253-5.152-38.488-16.5-48.791,11.493S346.4,483.208,346.4,483.208l47.082,2.11,15.714-6,17.847,5.493Z" fill="#263238"/>
            <path id="Path_84" data-name="Path 84" d="M384.433,486.285l-35.706,13.851L323.642,519.2a3.925,3.925,0,0,1-5.5-.744c-.055-.073-.108-.147-.157-.222a3.912,3.912,0,0,1-.378-3.537c2.947-7.532,13.934-35.211,16.6-36.071,3.088-1,36.7-17.058,36.7-17.058Z" fill="#286fd1"/>
            <g id="Group_15" data-name="Group 15" opacity="0.6">
              <g id="Group_14" data-name="Group 14">
                <g id="Group_13" data-name="Group 13" clip-path="url(#clip-path-6)">
                  <path id="Path_85" data-name="Path 85" d="M317.984,518.172,336.6,477.538l-1.5.613a5.9,5.9,0,0,0-3.006,2.759c-1.709,3.336-6.236,12.66-14.534,33.584A3.937,3.937,0,0,0,317.984,518.172Z" fill="#fff"/>
                </g>
              </g>
            </g>
            <g id="Group_18" data-name="Group 18" opacity="0.6">
              <g id="Group_17" data-name="Group 17">
                <g id="Group_16" data-name="Group 16" clip-path="url(#clip-path-7)">
                  <path id="Path_86" data-name="Path 86" d="M351,480.1a2.358,2.358,0,0,1-2.617,1.78,2.275,2.275,0,0,1-1.792-2.57,2.511,2.511,0,0,1,2.782-1.874,2.358,2.358,0,0,1,1.568,2.888" fill="#fff"/>
                </g>
              </g>
            </g>
            <path id="Path_87" data-name="Path 87" d="M330.1,503.673c0,.248,2.169.271,4.032,1.969s2.228,3.8,2.463,3.748.189-.566,0-1.438a6.233,6.233,0,0,0-5.021-4.42c-.932-.1-1.474.07-1.474.141" fill="#263238"/>
            <path id="Path_88" data-name="Path 88" d="M326.436,508.175c-.083.236,1.532.9,2.806,2.512s1.638,3.3,1.874,3.264.271-1.979-1.179-3.795-3.5-2.205-3.5-1.981" fill="#263238"/>
            <path id="Path_89" data-name="Path 89" d="M334.24,496.505c-.094.236,2.358,1.238,4.609,3.536s3.148,4.834,3.383,4.716-.377-2.853-2.782-5.329-5.186-3.135-5.21-2.923" fill="#263238"/>
            <path id="Path_90" data-name="Path 90" d="M344.743,491.4c-.177.177,1.45,1.792,2.593,4.3s1.368,4.774,1.615,4.715.4-2.44-.848-5.116-3.242-4.091-3.36-3.9" fill="#263238"/>
            <path id="Path_91" data-name="Path 91" d="M355.116,487.087c-.153.189,1.839,1.662,2.829,4.409s.507,5.128.755,5.175.377-.543.518-1.556a8.249,8.249,0,0,0-.495-3.914,8.418,8.418,0,0,0-2.192-3.289c-.767-.672-1.356-.919-1.415-.825" fill="#263238"/>
            <path id="Path_92" data-name="Path 92" d="M359.891,490.611a3.186,3.186,0,0,0,1.356-.507,9.969,9.969,0,0,0,3.065-2.511,4.41,4.41,0,0,0,1.237-2.581,1.554,1.554,0,0,0-1-1.509,2.556,2.556,0,0,0-1.827.106,5.553,5.553,0,0,0-2.888,6.448,6.436,6.436,0,0,0,5.529,4.55,2.224,2.224,0,0,0,1.756-.613,1.556,1.556,0,0,0,.13-1.8,5.344,5.344,0,0,0-2.169-1.828,11.424,11.424,0,0,0-3.749-1.284,3.507,3.507,0,0,0-1.45,0,18.026,18.026,0,0,1,4.9,1.827,5.1,5.1,0,0,1,1.851,1.65.8.8,0,0,1-.071.978,1.517,1.517,0,0,1-1.179.342,5.751,5.751,0,0,1-4.715-4.008,4.822,4.822,0,0,1,2.358-5.505,1.815,1.815,0,0,1,1.273-.129.849.849,0,0,1,.566.825,4.027,4.027,0,0,1-1,2.2,14.8,14.8,0,0,1-3.973,3.348" fill="#263238"/>
            <path id="Path_93" data-name="Path 93" d="M368.873,495.2c1-.519,41.329-16.939,41.329-16.939l-40.079-19.852L346,470.914Z" fill="#263238"/>
            <path id="Path_94" data-name="Path 94" d="M319.068,446.665l.554.165,1.591.531,6.1,2.11,22.4,7.862L423.558,483.4l3.536,1.1-.365.165,13.45-28.138.118.365L393.84,428.476l-13.368-8.252-3.536-2.216-.908-.589c-.2-.13-.306-.2-.3-.212l.319.176.943.543,3.6,2.133,13.462,8.1,46.563,28.22.224.142-.106.236-13.415,28.173-.118.236-.247-.083-3.537-1.1c-1.851-.53-3.619-1.179-5.4-1.827l-5.3-1.886L402.3,476.56l-19.58-6.991-33.16-11.788-22.339-8.051-6.059-2.216-1.568-.59a4.559,4.559,0,0,1-.53-.259" fill="#455a64"/>
            <path id="Path_95" data-name="Path 95" d="M368.873,495.2a16.663,16.663,0,0,1-1.5-1.426l-3.914-4.044c-3.289-3.43-7.8-8.251-12.766-13.5l-4.987-5.34-.271-.3.354-.177,12.236-5.894,3.536-1.674a9.516,9.516,0,0,1,1.309-.542,6.636,6.636,0,0,1-1.179.719l-3.43,1.745-12.142,6.13.083-.472,5.009,5.328c4.963,5.293,9.431,10.115,12.637,13.627l3.773,4.173a11.293,11.293,0,0,1,1.249,1.639" fill="#455a64"/>
            <path id="Path_96" data-name="Path 96" d="M450.211,417.018c.071.153-9.855,4.468-22.162,9.619s-22.326,9.218-22.4,9.065,9.855-4.468,22.162-9.631,22.4-9.218,22.4-9.053" fill="#455a64"/>
            <path id="Path_97" data-name="Path 97" d="M388.913,295.554c-.837,0-29.918-.271-35.789,5.6s-18.059,95.779-18.059,95.779c6.271,1.178,10.35,3.536,14.146,5.4l49.427,28.821,21.4-11.116a5.374,5.374,0,0,0,1.508-8.169l28.469-102.9a52.583,52.583,0,0,0-13.863-7.545c-8.334-3.064-47.235-5.87-47.235-5.87" fill="#455a64"/>
            <path id="Path_98" data-name="Path 98" d="M440.439,305.1s8.747,1.933,12.1,7.332c7.85,12.649,31.969,57.573,36.024,68.371,4.291,11.4-.318,17.883-3.419,22.692-3.336,5.175-21.666,5.163-29.977-3.713-3.536-3.819-23.411-21.82-23.411-21.82Z" fill="#455a64"/>
            <path id="Path_99" data-name="Path 99" d="M450.388,321.782a6.019,6.019,0,0,1-.33.884l-1.073,2.5c-.884,2.181-2.122,5.352-3.536,9.313-2.853,7.933-6.342,19.026-10.044,31.333s-6.919,23.446-9.312,31.58c-1.179,4.043-2.193,7.308-2.912,9.548l-.849,2.582a5,5,0,0,1-.33.884,6.165,6.165,0,0,1,.212-.92q.284-.978.743-2.617c.66-2.357,1.58-5.587,2.723-9.6,2.287-8.11,5.446-19.309,9.136-31.639s7.261-23.4,10.22-31.3c1.474-3.96,2.782-7.073,3.737-9.265l1.179-2.452a4.719,4.719,0,0,1,.436-.837" fill="#263238"/>
            <path id="Path_100" data-name="Path 100" d="M354.515,300.127s-9.183,5.222-12.543,8.252-38.063,52.551-42.507,67.982c-2.582,8.935,7.261,27.419,17.87,26.523,13.875-1.179,65.931-21.136,65.931-21.136l-11.682-25.427-29.47,4.715,21.395-21.5-7.98-39.986" fill="#455a64"/>
            <path id="Path_101" data-name="Path 101" d="M477.984,375.5a2.789,2.789,0,0,1-.519-.318l-1.438-.99-5.222-3.726c-4.385-3.182-10.421-7.626-17.069-12.566l-4.444-3.312.412-.059c-4.232,5.529-8,10.35-10.75,13.757a40.89,40.89,0,0,1-4.586,5.293l4.279-5.541,10.609-13.874.177-.236.236.177,4.456,3.3c6.648,4.939,12.637,9.431,16.963,12.72L476.145,374l1.367,1.084a2.775,2.775,0,0,1,.472.413" fill="#263238"/>
            <path id="Path_102" data-name="Path 102" d="M395.6,347.327l-23.34,10.456,9.312,20.24,14.594-9.631Z" fill="#b2655f"/>
            <path id="Path_103" data-name="Path 103" d="M417.652,349.307,433.271,338.7a2.876,2.876,0,0,1,1.875-.495l20.417,1.744a1.569,1.569,0,0,1,1.438,1.6,2.781,2.781,0,0,1-.861,2.169l-33.16,23.07-24.755-3.926Z" fill="#e0e0e0"/>
            <path id="Path_104" data-name="Path 104" d="M395.6,347.327s8.428-6.248,10.409-6.59,10.88-.306,10.88-.306l7.5,4.279-4.644,3.147c-3.218-.707-4.138-1.956-4.138-1.956l-5.186.342Z" fill="#b2655f"/>
            <path id="Path_105" data-name="Path 105" d="M405.074,344.616l13.309,4.633,19.144,2.7a4.185,4.185,0,0,1-3.82,4.3c-2.357.247-6.342.519-6.342.519s-.978,3.536-3.96,4.3a9.778,9.778,0,0,1-2.877,3.407,2.347,2.347,0,0,1-.589.259c-1.839.531-5.505,5.517-7.957,6.189s-15.843-2.487-15.843-2.487l-.566-21.054Z" fill="#b2655f"/>
            <path id="Path_106" data-name="Path 106" d="M408.953,355.484c0-.059,1.061.224,2.747.566a50.954,50.954,0,0,0,6.707.872,48.633,48.633,0,0,0,6.743,0c1.733-.118,2.794-.271,2.8-.212a3.5,3.5,0,0,1-.742.177c-.472.094-1.179.2-2.04.294a39.891,39.891,0,0,1-6.79.118,39.416,39.416,0,0,1-6.731-.99c-.848-.2-1.532-.389-1.992-.542a3.481,3.481,0,0,1-.707-.283" fill="#8e4842"/>
            <path id="Path_107" data-name="Path 107" d="M411.57,360.942a2.986,2.986,0,0,1-.13,1.32,2.781,2.781,0,0,1-.719,1.285,2.356,2.356,0,0,1-1.733.578,4.536,4.536,0,0,1-1.721-.495c-.483-.248-.884-.507-1.237-.7-.684-.412-1.179-.566-1.179-.625a2.748,2.748,0,0,1,1.249.389,7.9,7.9,0,0,0,2.865,1.061,2.025,2.025,0,0,0,1.485-.459,2.614,2.614,0,0,0,.7-1.12,11.221,11.221,0,0,1,.424-1.238" fill="#8e4842"/>
            <path id="Path_108" data-name="Path 108" d="M421.413,362.215a5.773,5.773,0,0,1-1.462.377,32.834,32.834,0,0,1-3.536.436,31.676,31.676,0,0,1-3.619,0,5.852,5.852,0,0,1-1.5-.165c0-.118,2.287,0,5.092-.247s5-.472,5.022-.4" fill="#8e4842"/>
            <path id="Path_109" data-name="Path 109" d="M411.31,367.779a4.716,4.716,0,0,1-4.574.719c0-.118,1.061.083,2.358-.118s2.216-.7,2.216-.6" fill="#8e4842"/>
            <path id="Path_110" data-name="Path 110" d="M416.108,367.544a3.412,3.412,0,0,1-1.426.377,3.216,3.216,0,0,1-1.486,0,3.172,3.172,0,0,1,1.438-.377c.8-.094,1.462-.106,1.474,0" fill="#8e4842"/>
            <path id="Path_111" data-name="Path 111" d="M418.383,349.248a36.214,36.214,0,0,1-6.236-2.086c-1.7-.661-3.218-1.285-4.3-1.78a7.716,7.716,0,0,1-1.709-.9,13.756,13.756,0,0,1,1.8.66l4.338,1.674,4.326,1.685a6.082,6.082,0,0,1,1.78.743" fill="#8e4842"/>
            <path id="Path_112" data-name="Path 112" d="M437.94,353.964s-1.475-.507.117-2.829,6.047.495,6.047.495l5.694,3.383s1.274,2.959-.307,3.749l-1.177,1.438s2.226,2.251,1.332,4.22a3.068,3.068,0,0,1-3.1,1.7s.261,3.984-1.036,5.516a4.353,4.353,0,0,1-2.477,1.674,7.066,7.066,0,0,1-4.915,4.279c-3.819.979-5.823,1.05-6.861-.565a17.659,17.659,0,0,1-1.686-3.643s-8.191-4.3-8.368-6.483.2-2.358.2-2.358a4.1,4.1,0,0,1,.164-3.148c.826-1.332,4.08-.165,4.08-.165l10.455,2.452s-8.37-3.925-9.359-5.21.07-2.865,3.431-2.464,13.509,2.3,13.509,2.3a3.13,3.13,0,0,0-1.18-1.3c-.672-.283-2.769-1.5-2.769-1.5Z" fill="#b2655f"/>
            <path id="Path_113" data-name="Path 113" d="M440.439,369.842c0,.094-4.267-.99-9.43-2.417s-9.431-2.675-9.372-2.77,4.267.99,9.43,2.417,9.4,2.676,9.372,2.77" fill="#8e4842"/>
            <path id="Path_114" data-name="Path 114" d="M435.452,375.536a12.061,12.061,0,0,1-3.053-.778,21.416,21.416,0,0,1-2.087-.8,3.938,3.938,0,0,1-.613-.33.822.822,0,0,1-.141-.129v-.083c0,.024,1.3.448,2.935.99a16.223,16.223,0,0,1,2.959,1.132" fill="#8e4842"/>
            <path id="Path_115" data-name="Path 115" d="M444.411,365.245c0,.094-2.063-.318-4.586-.731a45.95,45.95,0,0,1-4.573-.79,21.572,21.572,0,0,1,4.632.436,20.778,20.778,0,0,1,4.527,1.085" fill="#8e4842"/>
            <path id="Path_116" data-name="Path 116" d="M446.969,359.858c-.071.094-.9-.495-2.051-.908s-2.157-.518-2.157-.624a3.866,3.866,0,0,1,2.287.282,3.937,3.937,0,0,1,1.921,1.25" fill="#8e4842"/>
            <path id="Path_117" data-name="Path 117" d="M456.105,341.846h-.377l-1.1-.13c-.943-.129-2.357-.306-4-.495-3.383-.389-8.075-.8-13.273-.919a7.345,7.345,0,0,0-3.631.424,15.344,15.344,0,0,0-1.485.979l-1.415,1-4.892,3.453-3.312,2.3-.92.613a.964.964,0,0,1-.33.189,3.309,3.309,0,0,1,.295-.248l.872-.66,3.254-2.358,4.845-3.536,1.4-1.014a17.166,17.166,0,0,1,1.521-1.014,4.279,4.279,0,0,1,1.874-.471h1.934a127.824,127.824,0,0,1,13.285,1.025c1.7.224,3.065.448,4,.613l1.085.2a1.159,1.159,0,0,1,.365.047" fill="#263238"/>
            <path id="Path_118" data-name="Path 118" d="M443.315,343.661a.989.989,0,0,0-.978-.377h-.165a1.388,1.388,0,0,0-.8.448.847.847,0,0,0,0,1.072.98.98,0,0,0,.578.272,1.441,1.441,0,0,0,1.178-.295.99.99,0,0,0,.189-1.12" fill="#fff"/>
            <path id="Path_119" data-name="Path 119" d="M396.9,230.306l-2.263-1.178a4.8,4.8,0,0,0-3.454-.8c-1.12.318-1.9,1.39-3.053,1.508-1.344.153-2.452-1.06-3.8-.99s-2.275,1.178-3.537,1.178c-.943,0-1.945-.671-2.758-.212-.165.1-.306.224-.46.331a3.351,3.351,0,0,1-3.135-.177,4.331,4.331,0,0,0-3.136-.542,4.984,4.984,0,0,0-1.627,1.307,2.249,2.249,0,0,1-1.9.779c-.389-.082-.707-.331-1.1-.424-1.179-.306-2.228.989-3.466,1.32s-2.475-.259-3.536.259a1.8,1.8,0,0,0-.872,2.216,2.733,2.733,0,0,0,2.051,1.544,5.685,5.685,0,0,0,2.77-.2,6.73,6.73,0,0,1,2.228-.508c1.756.059,3.136,1.874,4.857,1.5a6.073,6.073,0,0,0,2.121-1.344,5.9,5.9,0,0,1,3.419-1.108,6.644,6.644,0,0,0,2.417-.13c.931-.378,1.461-1.356,2.428-1.615s2.075.366,3.147.259c.7-.058,1.344-.448,2.051-.483,1-.06,1.91.59,2.912.507s1.886-.931,2.912-.849a6.9,6.9,0,0,1,1.179.319,1.273,1.273,0,0,0,1.178-.177c.224-.212.295-.555.566-.707a1.187,1.187,0,0,1,.684-.072l3.324.343Z" fill="#263238"/>
            <path id="Path_120" data-name="Path 120" d="M400.477,230.189c-1.12-.825-2.617-1.686-3.878-.99-.46.247-.8.66-1.262.884-1.061.5-2.357-.153-3.465.153-.955.271-1.592,1.179-2.476,1.592-1.426.707-3.536.294-4.409,1.544-.483.684-.565,1.78-1.4,1.968a2.065,2.065,0,0,1-.9-.106,7.489,7.489,0,0,0-3.112-.094,3.314,3.314,0,0,0-1.615.684c-.849.766-.873,2.074-1.686,2.876-1.179,1.179-3.383.625-4.939,1.391a9.65,9.65,0,0,0-1.9,1.568,21.525,21.525,0,0,1-4.008,2.44,8.7,8.7,0,0,0-3.536,2.982,3.159,3.159,0,0,0,.448,4.044,1.6,1.6,0,0,0,1.992.094c.177-.165.294-.4.459-.589a3.9,3.9,0,0,1,1.38-.7c.483-.189.99-.554.99-1.049,0-.307-.177-.672.071-.884a.741.741,0,0,1,.365-.118c1.25-.13,2.782-.071,3.454-1.085a7.255,7.255,0,0,0,.507-1.5,2.809,2.809,0,0,1,2.027-1.674c.767-.176,1.627-.059,2.24-.53s.719-1.544,1.344-2.134c1.049-.99,3.124-.271,4.067-1.344.236-.271.365-.612.66-.813.849-.554,1.874.59,2.876.4s1.179-1.179,1.78-1.745a10.308,10.308,0,0,1,2.912-1.344c1.238-.6,2.134-1.768,3.442-2.157,1.179-.342,2.523-.106,3.36-.907.318-.307.542-.743.978-.885a1.923,1.923,0,0,1,.778,0,5.894,5.894,0,0,0,3.737-.754Z" fill="#263238"/>
            <path id="Path_121" data-name="Path 121" d="M398.567,233.183a9.428,9.428,0,0,0-7.992,2.358,6.294,6.294,0,0,1-1.509,1.178,8.436,8.436,0,0,1-2.947.33,5.8,5.8,0,0,0-4.869,3.938c-.448,1.355-.613,3.135-1.921,3.607a3.98,3.98,0,0,0-.719.259c-.873.542-.271,1.933-.283,3.006,0,1.768-1.981,2.983-2.051,4.715a4.569,4.569,0,0,0,.46,1.875q1.025,2.533,2.251,4.951c.365.719.849,1.52,1.627,1.627,1.179.153,1.815-1.179,2.145-2.358a3.433,3.433,0,0,0,.071-2.464c-.33-.625-1-.99-1.3-1.638-.459-1.026.283-2.169.814-3.148a9.425,9.425,0,0,0,.907-6.5c1.179-.224,1.8-1.9,3.03-2.134a7.362,7.362,0,0,0,1.025-.129c.814-.33.908-1.568,1.627-2.075s2.358-.118,2.759-1.12c.117-.318.059-.7.259-.955a1.006,1.006,0,0,1,.648-.342l2.971-.742a3.43,3.43,0,0,0,1.579-.7c.767-.731.885-2.122,1.851-2.5Z" fill="#263238"/>
            <path id="Path_122" data-name="Path 122" d="M401.715,227.277c-.118-1.745-.448-3.843-1.992-4.55-.908-.425-2.016-.2-2.912-.66-1.721-.861-1.862-3.643-3.536-4.527s-3.914.483-5.258-.813c-.7-.672-.79-1.792-1.355-2.582a3.942,3.942,0,0,0-3.03-1.3,9.507,9.507,0,0,1-3.324-.448c-1.768-.778-2.9-2.97-4.8-3.123-1.615-.118-2.876,1.3-3.89,2.593a2.488,2.488,0,0,0-.578,1.084,1.9,1.9,0,0,0,1.05,1.78c1.284.755,2.935.637,4.125,1.521a11.84,11.84,0,0,0,1.285,1.037c.684.366,1.545.283,2.2.7,1.285.79,1.261,2.947,2.546,3.749s2.782-.142,4.173.176c1.886.448,2.923,3.077,4.857,3.148a18.615,18.615,0,0,0,2.5-.554,2.77,2.77,0,0,1,2.676,1.579c.306.66.353,1.438.719,2.075a3.005,3.005,0,0,0,2.228,1.4,8.487,8.487,0,0,0,2.664-.153Z" fill="#263238"/>
            <path id="Path_123" data-name="Path 123" d="M400.253,232.711c-1.179-2.228-2.629-4.609-5.045-5.646a31.449,31.449,0,0,1-3.749-1.309c-.967-.566-1.65-1.473-2.558-2.122-2.11-1.5-5.022-1.4-7.615-.99s-5.269,1.061-7.816.436c-2.286-.566-4.279-2.11-6.624-2.251a11.391,11.391,0,0,0-3.761.648l-4.267,1.179a1.978,1.978,0,0,0-1.179.707c-.46.766.436,1.65,1.285,2a7.826,7.826,0,0,0,4.409.472,10.825,10.825,0,0,1,3.536-.531,22.926,22.926,0,0,1,2.358.755,8.843,8.843,0,0,0,3.053,0l4.715-.5a6.607,6.607,0,0,1,3.6.307c.849.413,1.521,1.179,2.464,1.3s2.051-.661,3.1-.507c1.25.2,1.875,1.591,3.018,2.122,1.344.624,3.112-.106,4.409.613.884.483,1.261,1.473,1.827,2.286a5.7,5.7,0,0,0,1.8,1.674,12.2,12.2,0,0,0,3.029,1.108Z" fill="#263238"/>
            <path id="Path_124" data-name="Path 124" d="M402.752,222.809c-.566-.778-1.426-1.568-1.179-2.511.118-.46.495-.837.578-1.308.141-.849-.719-1.509-1.038-2.358s0-2.122-.542-2.994-1.792-1.049-2.829-1.309a3.532,3.532,0,0,1-2.64-2.063,12.078,12.078,0,0,1-.142-2.357,4.455,4.455,0,0,0-4.279-3.654,4.662,4.662,0,0,1-1.768-.2c-1-.471-1.179-1.756-1.8-2.711a3.749,3.749,0,0,0-3.854-1.8c-.708.142-1.486.884-1.073,1.474.165.236.471.33.7.518.8.684.224,2.063.7,2.995s1.98,1.178,2.44,2.169c.354.766-.059,1.721.271,2.5.413.955,1.65,1.179,2.688,1.179s2.275.282,2.664,1.178a5.715,5.715,0,0,1,.2,1.344,2.628,2.628,0,0,0,1.356,1.874c1,.507,2.358.413,3.006,1.368s-.295,2.593.306,3.713c.437.814,1.486,1.026,2.275,1.521a.9.9,0,0,1,.413.471,1,1,0,0,1-.141.625c-.625,1.273-1.415,2.735-.814,4.008a5.262,5.262,0,0,0,1.085,1.32,11.169,11.169,0,0,1,2.735,4.716l1.1-4.8a4.916,4.916,0,0,0-.4-4.9" fill="#263238"/>
            <path id="Path_125" data-name="Path 125" d="M408.835,206.612a3.217,3.217,0,0,0-1.391-3.713,2.535,2.535,0,0,0-3.42,1.074,2.71,2.71,0,0,0-.116.258c-.472,1.568.848,3.407,0,4.821a4.961,4.961,0,0,0-.719,1.12c-.295,1.037,1,1.91,1.013,2.994s-1.5,1.851-1.8,3.006.978,2.723.5,4.008a4.718,4.718,0,0,1-.625.967c-1.379,2.027-.672,4.715.083,7.073l3.123-.46c-.577-2.169,2.476-4.338,1.439-6.319-.5-.943-1.851-1.626-1.545-2.652a2.01,2.01,0,0,1,.472-.707l2.912-3.183a2.942,2.942,0,0,0,.931-1.615c.129-1.379-1.592-2.275-1.816-3.654-.094-1.085.649-2.04.967-3.018" fill="#263238"/>
            <path id="Path_126" data-name="Path 126" d="M409.907,224.295c-.3-1.026-1.627-1.332-2.676-1.179-2.9.448-5.022,2.876-6.872,5.14a61.227,61.227,0,0,0-5.729,7.792,5.147,5.147,0,0,0-.8,1.98,2,2,0,0,0,.731,1.91,1.261,1.261,0,0,0,1.756-.311,1.134,1.134,0,0,0,.071-.114l.861-.212a42.031,42.031,0,0,1,11.01-12.283c.907-.707,1.957-1.662,1.65-2.723" fill="#286fd1"/>
            <path id="Path_127" data-name="Path 127" d="M393.958,268.641a101.029,101.029,0,0,1-1.073-17.281,35.1,35.1,0,0,1,4.621-16.5c.46-.754,4.067-5.658,4.9-5.41.6.176-1.957,4.915-1.745,5.505,1.957,5.646,1.568,11.906,0,17.682a77.809,77.809,0,0,1-6.672,16.043" fill="#263238"/>
            <path id="Path_128" data-name="Path 128" d="M419.644,306.293c.825-4,1.485-7.144,1.521-7.144s14.016,1.3,17.576-12.153c1.721-6.495,4.161-20.158,6.236-32.547a25.934,25.934,0,0,0-19.239-29.47l-1.308-.33c-14.24-2.7-24.5,7.874-26.806,22.185l-9.678,49.793,22.185,23.317Z" fill="#b2655f"/>
            <path id="Path_129" data-name="Path 129" d="M421.165,299.149a33.589,33.589,0,0,1-16.256-9.607s1.816,10.892,15.572,13.061Z" fill="#8e4842"/>
            <path id="Path_130" data-name="Path 130" d="M438.093,265.152a1.981,1.981,0,0,1-2.358,1.474,1.9,1.9,0,0,1-1.553-2.189l.009-.051a1.993,1.993,0,0,1,2.358-1.474,1.887,1.887,0,0,1,1.558,2.165c0,.025-.009.05-.014.075" fill="#263238"/>
            <path id="Path_131" data-name="Path 131" d="M440.686,259.317c-.3.189-1.485-1.25-3.536-1.768s-3.855.141-4.02-.177c-.071-.141.283-.53,1.061-.849a5.566,5.566,0,0,1,3.3-.165,5.235,5.235,0,0,1,2.759,1.721c.53.649.589,1.156.436,1.238" fill="#263238"/>
            <path id="Path_132" data-name="Path 132" d="M419.291,261.533a1.991,1.991,0,0,1-2.358,1.485,1.9,1.9,0,0,1-1.553-2.188l.009-.051a1.981,1.981,0,0,1,2.358-1.474,1.886,1.886,0,0,1,1.555,2.167c0,.02-.007.041-.011.061" fill="#263238"/>
            <path id="Path_133" data-name="Path 133" d="M420.175,255.05c-.306.189-1.5-1.25-3.536-1.768s-3.855.141-4.02-.177c-.083-.13.271-.53,1.061-.837a5.43,5.43,0,0,1,3.289-.177,5.14,5.14,0,0,1,2.758,1.721c.495.649.589,1.132.448,1.238" fill="#263238"/>
            <path id="Path_134" data-name="Path 134" d="M423.605,272.85a14.119,14.119,0,0,1,3.536.236c.543.082,1.073.106,1.25-.236a2.741,2.741,0,0,0,0-1.662c-.177-1.4-.354-2.876-.554-4.421-.731-6.283-1.108-11.4-.861-11.422s1.05,5.045,1.78,11.328c.177,1.544.33,3.018.484,4.432a3.161,3.161,0,0,1-.248,2.146,1.4,1.4,0,0,1-1.061.554A3.11,3.11,0,0,1,427,273.7a14,14,0,0,1-3.395-.849" fill="#263238"/>
            <path id="Path_135" data-name="Path 135" d="M417.2,272.755c.342.059-.224,2.358,1.308,4.4s3.985,2.428,3.914,2.747-.636.306-1.662.082a5.821,5.821,0,0,1-3.3-2.181,5.01,5.01,0,0,1-.954-3.642c.094-.967.483-1.462.7-1.4" fill="#263238"/>
            <path id="Path_136" data-name="Path 136" d="M422.179,246.609c-.354.519-2.358-.271-4.857-.589s-4.644-.154-4.833-.743c-.082-.271.389-.719,1.32-1.061a8.419,8.419,0,0,1,7.38,1.014c.8.577,1.143,1.131.99,1.379" fill="#263238"/>
            <path id="Path_137" data-name="Path 137" d="M441.57,252.209c-.483.377-1.792-.46-3.536-.919s-3.254-.484-3.466-1.061c-.083-.272.259-.684,1.014-.979a5.27,5.27,0,0,1,5.611,1.6c.518.637.589,1.167.377,1.356" fill="#263238"/>
            <path id="Path_138" data-name="Path 138" d="M396.221,257.16c-.212-.153-8.582-5.069-10.609,4.22s7.733,9.431,7.8,9.148,2.806-13.368,2.806-13.368" fill="#b2655f"/>
            <path id="Path_139" data-name="Path 139" d="M391.341,266.39a2.543,2.543,0,0,1-.483.141,1.626,1.626,0,0,1-1.179-.235c-.908-.578-1.391-2.358-1.073-4a5.328,5.328,0,0,1,.955-2.216,1.9,1.9,0,0,1,1.485-.978.837.837,0,0,1,.861.648.941.941,0,0,1,0,.484c0,.023.236-.107.247-.507a1.056,1.056,0,0,0-.235-.66,1.244,1.244,0,0,0-.849-.437,2.359,2.359,0,0,0-2,1.073,5.734,5.734,0,0,0-1.179,2.464c-.342,1.886.236,3.855,1.5,4.538a1.8,1.8,0,0,0,1.533.071c.353-.165.448-.365.424-.389" fill="#8e4842"/>
            <path id="Path_140" data-name="Path 140" d="M442.171,237.757c1.686-.519-1.827-6.342-5.175-8.794-5.069-3.7-13.3-7.073-18.767-6.66-6.577.46-12.389,2.475-16.68,7.485a37.436,37.436,0,0,0-8.016,17.847,11.37,11.37,0,0,0,.13,5.965c.872,2.358,3.1,4.15,2.358,6.967a3.956,3.956,0,0,0,.377,3.041c1.32,2.169,3.76.9,5.08-.613,2.806-3.218,3.938-7.521,4.987-11.67a27.441,27.441,0,0,0,1.261-8.971c-.129-1.65-.554-3.277-.6-4.927a5.752,5.752,0,0,1,1.639-4.515,7.123,7.123,0,0,1,.907-.6,9.9,9.9,0,0,1,10.02.177c4.857,2.947,13.238,7.579,15.949,6.295,3.9-1.863,5.057-3.36,5.057-3.36Z" fill="#263238"/>
            <path id="Path_141" data-name="Path 141" d="M343.069,396.33a3.718,3.718,0,0,1,.754-.33l2.205-.861,8.322-3.112,28.81-10.609-.165.4c-2.357-5.2-5-10.857-7.709-16.716l-3.973-8.664.319.165-28.858,4.432a58.415,58.415,0,0,0-14.912,6.555c-1.65,1.013-2.888,1.886-3.736,2.475l-.944.684a1.169,1.169,0,0,1-.341.212l.294-.271.908-.731c.813-.637,2.039-1.544,3.678-2.593a56.45,56.45,0,0,1,14.924-6.779l28.845-4.5h.224l.106.2c1.285,2.817,2.629,5.717,3.985,8.664,2.687,5.894,5.292,11.517,7.674,16.727l.141.283-.306.118-28.893,10.374-8.37,2.959-2.239.766Z" fill="#263238"/>
            <path id="Path_142" data-name="Path 142" d="M360.339,343.354a20.333,20.333,0,0,1-2.359,2.9c-1.532,1.733-3.677,4.09-6.118,6.648s-4.715,4.81-6.424,6.354a19.085,19.085,0,0,1-2.146,1.733c-.294.165-.495.33-.754.283a.177.177,0,0,1,0-.236v-.059s0,.153.071.177a1.664,1.664,0,0,0,.566-.354c.483-.4,1.178-1.049,1.98-1.85,1.638-1.627,3.855-3.926,6.283-6.472l6.248-6.519a22.82,22.82,0,0,1,2.653-2.605" fill="#263238"/>
            <path id="Path_143" data-name="Path 143" d="M365.95,331.708c-.13,0,.248-1.851.248-4.833a31.085,31.085,0,0,0-.448-5.187,32.119,32.119,0,0,0-4.551-11.847,32.477,32.477,0,0,0-3.159-4.161c-2-2.2-3.536-3.313-3.418-3.407a5.4,5.4,0,0,1,1.084.731,11.739,11.739,0,0,1,1.179.978,19.729,19.729,0,0,1,1.474,1.4,29.156,29.156,0,0,1,3.312,4.15,32.7,32.7,0,0,1,2.971,5.776,33.678,33.678,0,0,1,1.673,6.283,28.75,28.75,0,0,1,.319,5.293,19.371,19.371,0,0,1-.154,2.027,10.543,10.543,0,0,1-.223,1.521,5.463,5.463,0,0,1-.307,1.273" fill="#263238"/>
            <path id="Path_144" data-name="Path 144" d="M395.986,419.612a37.007,37.007,0,0,1,3.866,0,35.173,35.173,0,0,0,17.588-5.187c2.028-1.179,3.183-2.169,3.254-2.086s-.236.294-.743.742a23.657,23.657,0,0,1-2.275,1.71,31.825,31.825,0,0,1-8.511,3.984,31.448,31.448,0,0,1-9.312,1.273,22.294,22.294,0,0,1-2.841-.2,3.761,3.761,0,0,1-1.026-.236" fill="#263238"/>
            <path id="Path_145" data-name="Path 145" d="M413.526,393.583a5.1,5.1,0,0,1-.79,1c-.53.625-1.332,1.5-2.357,2.57-2.016,2.133-4.9,5-8.252,7.98s-6.5,5.553-8.841,7.321c-1.179.884-2.134,1.591-2.818,2.051a4.718,4.718,0,0,1-1.084.672,5.281,5.281,0,0,1,.943-.861l2.688-2.2c2.263-1.851,5.375-4.444,8.711-7.427s6.248-5.788,8.346-7.839l2.476-2.428a4.835,4.835,0,0,1,.978-.837" fill="#263238"/>
          </g>
        </g>
        <text id="Log_in" data-name="Log in" transform="translate(225.944 119.52)" font-size="17" font-family="PlusJakartaSans-Medium, Plus Jakarta Sans" font-weight="500"><tspan x="0" y="0">Log in</tspan></text>
        <text id="Log_in-2" data-name="Log in" transform="translate(224.951 334.438)" fill="#fff" font-size="14" font-family="PlusJakartaSans-SemiBold, Plus Jakarta Sans" font-weight="600"><tspan x="0" y="0">Log in</tspan></text>
      </g>
    </g>
  </g>
</svg>
